/* XPM */
static char * connectagram_xpm[] = {
"32 32 193 2",
"  	c None",
". 	c #004700",
"+ 	c #005900",
"@ 	c #006400",
"# 	c #006500",
"$ 	c #005B00",
"% 	c #006800",
"& 	c #237D23",
"* 	c #61A161",
"= 	c #7EB27E",
"- 	c #80B480",
"; 	c #004A00",
"> 	c #006B00",
", 	c #4B964B",
"' 	c #AFD0AF",
") 	c #B2D2B2",
"! 	c #006100",
"~ 	c #1D7F1D",
"{ 	c #9FC89F",
"] 	c #A2CAA2",
"^ 	c #007000",
"/ 	c #499A49",
"( 	c #93C393",
"_ 	c #007400",
": 	c #55A255",
"< 	c #83BB83",
"[ 	c #82BA82",
"} 	c #81B981",
"| 	c #007700",
"1 	c #4CA04C",
"2 	c #74B574",
"3 	c #74B474",
"4 	c #73B373",
"5 	c #71B071",
"6 	c #6EAB6E",
"7 	c #6AA66A",
"8 	c #69A369",
"9 	c #6AA56A",
"0 	c #6DAA6D",
"a 	c #70AF70",
"b 	c #007900",
"c 	c #439C43",
"d 	c #65AE65",
"e 	c #64AD64",
"f 	c #61A861",
"g 	c #5A9B5A",
"h 	c #5B915B",
"i 	c #769C76",
"j 	c #8FAA8F",
"k 	c #A4B8A4",
"l 	c #93AD93",
"m 	c #7B9F7B",
"n 	c #548D54",
"o 	c #5C9E5C",
"p 	c #63AA63",
"q 	c #65AD65",
"r 	c #007C00",
"s 	c #389938",
"t 	c #55A855",
"u 	c #54A754",
"v 	c #519F51",
"w 	c #468A46",
"x 	c #88A688",
"y 	c #F1F3F1",
"z 	c #FFFFFF",
"A 	c #EFF2EF",
"B 	c #719F71",
"C 	c #4F9D4F",
"D 	c #007F00",
"E 	c #2E962E",
"F 	c #46A246",
"G 	c #46A146",
"H 	c #398439",
"I 	c #BCCBBC",
"J 	c #FEFEFE",
"K 	c #E0E3E0",
"L 	c #EEF0EE",
"M 	c #3F913F",
"N 	c #45A045",
"O 	c #008200",
"P 	c #249324",
"Q 	c #369C36",
"R 	c #359A35",
"S 	c #308A30",
"T 	c #9DAD9D",
"U 	c #2A612A",
"V 	c #246824",
"W 	c #236623",
"X 	c #376B37",
"Y 	c #9BB49B",
"Z 	c #6FA06F",
"` 	c #318F31",
" .	c #369B36",
"..	c #008500",
"+.	c #1A911A",
"@.	c #279827",
"#.	c #269326",
"$.	c #1E771E",
"%.	c #ECF0EC",
"&.	c #B2BEB2",
"*.	c #1B681B",
"=.	c #228522",
"-.	c #248E24",
";.	c #248D24",
">.	c #228622",
",.	c #218121",
"'.	c #238723",
").	c #279727",
"!.	c #008800",
"~.	c #0F8F0F",
"{.	c #179317",
"].	c #179217",
"^.	c #168B16",
"/.	c #2B772B",
"(.	c #447944",
"_.	c #147F14",
":.	c #169016",
"<.	c #179117",
"[.	c #179017",
"}.	c #008B00",
"|.	c #058D05",
"1.	c #088F08",
"2.	c #088E08",
"3.	c #078307",
"4.	c #4D8A4D",
"5.	c #176A17",
"6.	c #078507",
"7.	c #008D00",
"8.	c #008C00",
"9.	c #008100",
"0.	c #498849",
"a.	c #126B12",
"b.	c #009000",
"c.	c #008F00",
"d.	c #008600",
"e.	c #1D731D",
"f.	c #3A7E3A",
"g.	c #008E00",
"h.	c #009300",
"i.	c #006E00",
"j.	c #EBEFEB",
"k.	c #ADC2AD",
"l.	c #007100",
"m.	c #008900",
"n.	c #008700",
"o.	c #009200",
"p.	c #009600",
"q.	c #629162",
"r.	c #95B495",
"s.	c #0D720D",
"t.	c #007600",
"u.	c #1B7C1B",
"v.	c #8EBB8E",
"w.	c #56A456",
"x.	c #009500",
"y.	c #009900",
"z.	c #009800",
"A.	c #B1C5B1",
"B.	c #DEE6DE",
"C.	c #EDF1ED",
"D.	c #5F9C5F",
"E.	c #009700",
"F.	c #009C00",
"G.	c #009A00",
"H.	c #027002",
"I.	c #6A956A",
"J.	c #429042",
"K.	c #009B00",
"L.	c #009F00",
"M.	c #009E00",
"N.	c #009D00",
"O.	c #008000",
"P.	c #107210",
"Q.	c #418241",
"R.	c #699569",
"S.	c #87A887",
"T.	c #6F996F",
"U.	c #488648",
"V.	c #057105",
"W.	c #00A100",
"X.	c #00A000",
"Y.	c #009400",
"Z.	c #008300",
"`.	c #00A400",
" +	c #00A300",
".+	c #00A600",
"++	c #00A700",
"@+	c #00AA00",
"#+	c #007800",
"$+	c #00AD00",
"%+	c #00B000",
"&+	c #00B200",
"*+	c #00B300",
"                                                                ",
"                                                                ",
"        . + @ # # # # # # # # # # # # # # # # # # @ + .         ",
"      $ % & * = - - - - - - - - - - - - - - - - = * & % $       ",
"    ; > , ' ) ) ) ) ) ) ) ) ) ) ) ) ) ) ) ) ) ) ) ) ' , > ;     ",
"    ! ~ { ] ] ] ] ] ] ] ] ] ] ] ] ] ] ] ] ] ] ] ] ] ] { ~ !     ",
"    ^ / ( ( ( ( ( ( ( ( ( ( ( ( ( ( ( ( ( ( ( ( ( ( ( ( / ^     ",
"    _ : < < < < < < < < < < < [ [ } [ [ < < < < < < < < : _     ",
"    | 1 2 2 2 2 2 2 2 2 3 4 5 6 7 8 9 0 a 4 3 2 2 2 2 2 1 |     ",
"    b c d d d d d d d e f g h i j k l m n o p q d d d d c b     ",
"    r s t t t t t t u v w x y z z z z z A B C u t t t t s r     ",
"    D E F F F F F G c H I z z z J K L z z m M N F F F F E D     ",
"    O P Q Q Q Q Q R S i z z z T U V W X Y Z `  .Q Q Q Q P O     ",
"    ..+.@.@.@.@.@.#.$.%.z z &.*.=.-.;.>.,.'.#.).@.@.@.@.+...    ",
"    !.~.{.{.{.{.].^./.z z z (._.:.].].<.[.<.].{.{.{.{.{.~.!.    ",
"    }.|.1.1.1.1.2.3.4.z z z 5.6.2.1.1.1.1.1.1.1.1.1.1.1.|.}.    ",
"    7.7.7.7.7.7.8.9.0.z z z a...8.7.7.7.7.7.7.7.7.7.7.7.7.7.    ",
"    b.b.b.b.b.b.c.d.e.z z z f.9.g.b.b.c.c.c.c.b.b.b.b.b.b.b.    ",
"    h.h.h.h.h.h.h.7.i.j.z z k.l.m.c.g.8.n.m.b.o.h.h.h.h.h.h.    ",
"    p.p.p.p.p.p.p.h.D q.z z z r.s.t._ u.v.w.}.x.p.p.p.p.p.p.    ",
"    y.y.y.y.y.y.y.z.c.l.A.z z z J B.C.z z D.m.E.y.y.y.y.y.y.    ",
"    F.F.F.F.F.F.F.F.G.g.H.I.A z z z z z %.J.c.K.F.F.F.F.F.F.    ",
"    L.L.L.L.L.L.L.L.M.N.h.O.P.Q.R.S.T.U.V.m.G.M.L.L.L.L.L.L.    ",
"    W.W.W.W.W.W.W.W.W.W.X.K.Y.8.d.Z...8.x.N.X.W.W.W.W.W.W.W.    ",
"    `.`.`.`.`.`.`.`.`.`.`. + +W.W.X.W.W. + +`.`.`.`.`.`.`.`.    ",
"    .+++++++++++++++++++++++++++++++++++++++++++++++++++++.+    ",
"    p.@+@+@+@+@+@+@+@+@+@+@+@+@+@+@+@+@+@+@+@+@+@+@+@+@+@+p.    ",
"    #+$+$+$+$+$+$+$+$+$+$+$+$+$+$+$+$+$+$+$+$+$+$+$+$+$+$+#+    ",
"      y.%+%+%+%+%+%+%+%+%+%+%+%+%+%+%+%+%+%+%+%+%+%+%+%+y.      ",
"        r N.&+*+*+*+*+*+*+*+*+*+*+*+*+*+*+*+*+*+*+&+N.r         ",
"                                                                ",
"                                                                "};
